<?xml version="1.0" encoding="utf-8"?>
<!-- Generator: Adobe Illustrator 19.0.0, SVG Export Plug-In . SVG Version: 6.00 Build 0)  -->
<svg version="1.1" xmlns="http://www.w3.org/2000/svg" xmlns:xlink="http://www.w3.org/1999/xlink" x="0px" y="0px"
	 viewBox="0 0 100 100" style="enable-background:new 0 0 100 100;" xml:space="preserve">
<style type="text/css">
	.st0{clip-path:url(#XMLID_34_);fill:#FFFFFF;}
	.st1{fill:none;stroke:#000000;stroke-linecap:round;stroke-linejoin:round;stroke-miterlimit:10;}
	.st2{fill:none;stroke:#000000;stroke-linecap:round;stroke-miterlimit:10;}
</style>
<g id="bg">
</g>
<g id="图层_1">
	<g id="XMLID_58_">
		<defs>
			<circle id="XMLID_10_" cx="50.1" cy="50.1" r="50"/>
		</defs>
		<clipPath id="XMLID_34_">
			<use xlink:href="#XMLID_10_"  style="overflow:visible;"/>
		</clipPath>
		<rect id="XMLID_57_" x="-0.2" y="0.3" class="st0" width="100" height="100"/>
	</g>
	<path id="XMLID_42_" class="st1" d="M50.7,18.1c-19,18.8-27.8,56-27.8,56"/>
	<path id="XMLID_43_" class="st2" d="M84.9,49.1c-26-1.8-53.6,13.5-62,25"/>
	<path id="XMLID_44_" class="st1" d="M50.7,18.1c17.6,18,23.6,43.6,24.3,59.6"/>
	<g id="XMLID_20_">
		<g id="XMLID_25_">
			<path id="XMLID_26_" d="M87.9,53.8c-0.5,0-1.1-0.3-1.5-0.7c-0.8-0.9-0.7-2.3,0.2-3c0.5-0.4,1.2-0.6,1.8-0.5
				c0.2,0,0.3,0.3,0.2,0.4l0,0c-0.1,0.2-0.2,0.2-0.4,0.2c-0.5-0.1-0.9,0-1.3,0.3c-0.7,0.6-0.7,1.7,0.1,2.3c0.5,0.4,1.2,0.4,1.7,0.1
				c0.5-0.3,0.7-0.8,0.7-1.4c0-0.2,0.1-0.3,0.2-0.4c0.2-0.1,0.4,0.1,0.4,0.3c0,0.7-0.2,1.3-0.7,1.8C89,53.7,88.4,53.9,87.9,53.8
				 M88.3,48c-0.5,0-1.1-0.3-1.5-0.7c-0.8-1-0.6-2.5,0.6-3.3c0.8-0.5,1.8-0.4,2.4,0.2c0.6,0.5,0.9,1.3,0.8,2.1
				c0,0.2-0.3,0.3-0.5,0.2c-0.2-0.1-0.2-0.2-0.2-0.4c0.1-0.5-0.1-1.1-0.5-1.5c-0.5-0.4-1.1-0.4-1.7-0.1c-0.8,0.5-1,1.6-0.4,2.3
				c0.3,0.4,0.8,0.5,1.2,0.5c0.2,0,0.3,0.1,0.4,0.2l0,0c0,0.1,0,0.2-0.1,0.3C88.8,48,88.7,48,88.6,48C88.5,48,88.4,48,88.3,48
				 M93.7,54.3c-0.5,0-1.1-0.3-1.5-0.7c-0.4-0.5-0.6-1.2-0.5-1.8c0-0.2,0.3-0.3,0.5-0.2c0.2,0.1,0.2,0.2,0.2,0.4
				c-0.1,0.5,0.1,1.1,0.5,1.5c0.5,0.4,1.1,0.4,1.7,0.1c0.8-0.5,1-1.6,0.4-2.3c-0.3-0.4-0.8-0.5-1.2-0.5c-0.2,0-0.3-0.1-0.4-0.2l0,0
				c0-0.1,0-0.2,0.1-0.3c0.1-0.1,0.1-0.1,0.2-0.1c0.7,0,1.3,0.2,1.8,0.7c0.8,0.9,0.7,2.3-0.2,3C94.8,54.1,94.3,54.3,93.7,54.3
				 M94.1,48.4c-0.1,0-0.2,0-0.3,0c-0.2,0-0.3-0.3-0.2-0.4l0,0c0.1-0.2,0.2-0.2,0.4-0.2c0.5,0.1,0.9,0,1.3-0.3
				c0.7-0.6,0.7-1.7-0.1-2.3c-0.5-0.4-1.2-0.4-1.7-0.1c-0.5,0.3-0.7,0.8-0.7,1.4c0,0.2-0.1,0.3-0.2,0.4c-0.2,0.1-0.4-0.1-0.4-0.3
				c-0.1-0.8,0.3-1.6,1-2c0.8-0.4,1.7-0.4,2.4,0.1c0.5,0.4,0.8,1,0.8,1.6c0,0.6-0.3,1.2-0.7,1.7C95.3,48.3,94.7,48.5,94.1,48.4
				L94.1,48.4z M93.4,52.2c-0.4-0.5-1.4-1.7-2.2-1.9l-0.4,0c-0.8,0-2.1,1.2-2.5,1.6L88.3,52c-0.2,0.1-0.4,0.1-0.5,0
				c-0.1-0.1-0.1-0.4,0.1-0.6l0,0c0,0,0.1-0.1,0.1-0.1c0.4-0.3,1.6-1.3,1.8-2.1c0-0.1,0.1-0.4,0-0.5c-0.1-0.8-1.1-2-1.5-2.4
				c0,0-0.1-0.1-0.1-0.1l0,0c-0.1-0.2-0.1-0.4,0-0.6c0.1-0.1,0.4-0.1,0.5,0c0,0,0.1,0.1,0.1,0.1l0,0c0.3,0.4,1.5,1.8,2.3,1.9l0.3,0
				c0.8,0,2-1.1,2.4-1.5c0,0,0.1-0.1,0.1-0.1l0,0c0.2-0.1,0.5-0.1,0.6,0c0.1,0.1,0.1,0.4,0,0.5c0,0-0.1,0.1-0.1,0.1l0,0
				c-0.4,0.3-1.8,1.5-1.9,2.3l0,0.2c-0.1,0.7,1.2,2.1,1.5,2.5l0.1,0.1c0.1,0.2,0.1,0.4,0,0.5c-0.1,0.1-0.4,0.1-0.6-0.1l0,0
				C93.5,52.3,93.5,52.2,93.4,52.2L93.4,52.2z M93.4,52.2"/>
		</g>
	</g>
	<g id="XMLID_11_">
		<g id="XMLID_12_">
			<path id="XMLID_13_" d="M47.7,17.3c-0.6,0-1.1-0.2-1.5-0.6c-0.8-0.9-0.8-2.2,0.1-3c0.5-0.5,1.2-0.7,1.8-0.6
				c0.2,0,0.3,0.2,0.3,0.4l0,0c0,0.2-0.2,0.2-0.4,0.2c-0.5-0.1-0.9,0.1-1.3,0.4c-0.7,0.6-0.6,1.7,0.2,2.3c0.5,0.3,1.2,0.4,1.7,0
				c0.5-0.3,0.7-0.9,0.6-1.4c0-0.2,0.1-0.3,0.2-0.4c0.2-0.1,0.4,0.1,0.4,0.3c0.1,0.7-0.1,1.3-0.6,1.8C48.8,17.1,48.2,17.3,47.7,17.3
				 M47.8,11.4c-0.6,0-1.1-0.2-1.5-0.7c-0.9-0.9-0.8-2.5,0.4-3.3c0.7-0.5,1.7-0.5,2.4,0c0.7,0.5,1,1.3,0.9,2.1
				c0,0.2-0.2,0.3-0.4,0.3c-0.2,0-0.2-0.2-0.2-0.4c0.1-0.5-0.1-1.1-0.6-1.4C48.2,7.7,47.5,7.7,47,8c-0.8,0.5-0.9,1.6-0.3,2.3
				c0.3,0.3,0.8,0.5,1.2,0.4c0.2,0,0.3,0.1,0.4,0.2l0,0c0,0.1,0,0.2,0,0.3c-0.1,0.1-0.1,0.1-0.2,0.1C48,11.4,47.9,11.4,47.8,11.4
				 M53.5,17.4c-0.6,0-1.1-0.2-1.5-0.6c-0.5-0.5-0.7-1.2-0.6-1.8c0-0.2,0.2-0.3,0.4-0.3c0.2,0,0.2,0.2,0.2,0.4
				c-0.1,0.5,0.1,1.1,0.6,1.4c0.5,0.4,1.2,0.4,1.7,0.1c0.8-0.5,0.9-1.6,0.3-2.3c-0.3-0.3-0.8-0.5-1.2-0.4c-0.2,0-0.3-0.1-0.4-0.2
				l0,0c0-0.1,0-0.2,0-0.3c0.1-0.1,0.1-0.1,0.2-0.1c0.7-0.1,1.3,0.1,1.8,0.6c0.8,0.9,0.8,2.2-0.1,3C54.6,17.2,54.1,17.4,53.5,17.4
				 M53.7,11.5c-0.1,0-0.2,0-0.3,0c-0.2,0-0.3-0.2-0.3-0.4l0,0c0-0.2,0.2-0.2,0.4-0.2c0.5,0.1,0.9-0.1,1.3-0.4
				c0.7-0.6,0.6-1.7-0.2-2.3c-0.5-0.4-1.2-0.4-1.7,0c-0.5,0.3-0.7,0.9-0.6,1.4c0,0.2-0.1,0.3-0.2,0.4c-0.2,0.1-0.4-0.1-0.4-0.3
				c-0.1-0.8,0.2-1.6,0.9-2.1c0.7-0.5,1.7-0.5,2.4,0c0.5,0.4,0.9,0.9,0.9,1.6c0,0.6-0.2,1.3-0.7,1.7C54.8,11.3,54.2,11.5,53.7,11.5
				L53.7,11.5z M53.2,15.3c-0.4-0.4-1.5-1.6-2.3-1.8l-0.4,0c-0.8,0.1-2,1.3-2.4,1.7L48,15.4c-0.2,0.1-0.4,0.1-0.6,0
				c-0.2-0.1-0.1-0.4,0-0.6l0,0c0,0,0.1-0.1,0.1-0.1c0.4-0.4,1.5-1.4,1.7-2.2c0-0.1,0-0.4,0-0.5c-0.1-0.8-1.2-1.9-1.6-2.3
				c0,0-0.1-0.1-0.1-0.1l0,0c-0.2-0.2-0.2-0.4,0-0.6c0.1-0.1,0.4-0.1,0.6,0c0,0,0.1,0.1,0.1,0.1l0,0c0.4,0.4,1.6,1.7,2.3,1.8l0.3,0
				c0.8,0,2-1.2,2.4-1.6c0,0,0.1-0.1,0.1-0.1l0,0c0.2-0.2,0.4-0.2,0.6,0c0.1,0.1,0.1,0.4,0,0.6c0,0-0.1,0.1-0.1,0.1l0,0
				c-0.4,0.4-1.7,1.6-1.8,2.4l0,0.2c0,0.7,1.3,2.1,1.7,2.5l0.1,0.1c0.1,0.2,0.1,0.4,0,0.6c-0.1,0.2-0.4,0.1-0.6,0l0,0
				C53.3,15.4,53.2,15.4,53.2,15.3L53.2,15.3z M53.2,15.3"/>
		</g>
	</g>
	<g id="XMLID_1_">
		<g id="XMLID_2_">
			<path id="XMLID_3_" d="M15,84.3c-0.5-0.2-0.9-0.6-1.2-1.2c-0.4-1.1,0.1-2.4,1.2-2.8c0.6-0.3,1.3-0.2,1.9,0.2
				c0.2,0.1,0.2,0.4,0.1,0.5l0,0c-0.1,0.1-0.3,0.1-0.4,0.1c-0.4-0.2-0.9-0.3-1.3-0.1c-0.8,0.3-1.2,1.4-0.7,2.2
				c0.3,0.5,1,0.8,1.5,0.6c0.5-0.1,1-0.5,1.1-1.1c0-0.2,0.2-0.3,0.3-0.3c0.2,0,0.3,0.2,0.3,0.4c-0.2,0.6-0.6,1.2-1.3,1.4
				C16.1,84.5,15.5,84.5,15,84.3 M17.2,78.9c-0.5-0.2-0.9-0.6-1.1-1.2c-0.5-1.2,0.2-2.6,1.6-2.9c0.9-0.2,1.8,0.2,2.2,1
				c0.4,0.7,0.4,1.6,0,2.3c-0.1,0.2-0.4,0.2-0.5,0.1c-0.1-0.1-0.1-0.3-0.1-0.4c0.3-0.5,0.3-1.1,0-1.5c-0.3-0.5-0.9-0.8-1.5-0.7
				c-0.9,0.2-1.5,1.2-1.1,2c0.2,0.4,0.5,0.8,1,0.9c0.2,0,0.3,0.2,0.3,0.4l0,0c0,0.1-0.1,0.2-0.1,0.2c-0.1,0.1-0.2,0.1-0.3,0
				C17.4,79,17.3,79,17.2,78.9 M20.3,86.6c-0.5-0.2-0.9-0.6-1.2-1.2c-0.2-0.6-0.2-1.3,0.2-1.9c0.1-0.2,0.4-0.2,0.5-0.1
				c0.1,0.1,0.1,0.3,0.1,0.4c-0.3,0.5-0.3,1.1,0,1.5c0.3,0.5,0.9,0.8,1.5,0.7c0.9-0.2,1.4-1.2,1.1-2c-0.2-0.4-0.5-0.8-1-0.9
				c-0.2,0-0.3-0.2-0.3-0.4l0,0c0-0.1,0.1-0.2,0.1-0.2c0.1-0.1,0.2-0.1,0.3,0c0.6,0.2,1.2,0.6,1.4,1.3c0.4,1.1-0.1,2.4-1.2,2.8
				C21.4,86.9,20.9,86.8,20.3,86.6 M22.7,81.2c-0.1,0-0.2-0.1-0.3-0.1c-0.2-0.1-0.2-0.4-0.1-0.5l0,0c0.1-0.1,0.3-0.1,0.4-0.1
				c0.4,0.2,0.9,0.3,1.3,0.1c0.8-0.3,1.2-1.4,0.7-2.2c-0.3-0.5-0.9-0.8-1.5-0.6c-0.5,0.1-1,0.5-1.1,1.1c0,0.2-0.2,0.3-0.3,0.3
				c-0.2,0-0.3-0.2-0.3-0.4c0.2-0.8,0.8-1.4,1.6-1.5c0.9-0.2,1.8,0.2,2.2,0.9c0.3,0.5,0.4,1.2,0.2,1.8c-0.2,0.6-0.7,1.1-1.2,1.3
				C23.8,81.5,23.2,81.5,22.7,81.2L22.7,81.2z M20.8,84.6c-0.2-0.6-0.8-2.1-1.5-2.5L19,82c-0.7-0.2-2.3,0.4-2.8,0.7L16,82.7
				c-0.2,0.1-0.4,0-0.5-0.2c-0.1-0.2,0-0.4,0.2-0.5l0,0c0,0,0.1,0,0.2,0c0.5-0.2,2-0.7,2.4-1.4c0.1-0.1,0.2-0.4,0.2-0.5
				c0.2-0.7-0.4-2.2-0.6-2.7c0,0-0.1-0.1-0.1-0.2l0,0c-0.1-0.2,0-0.5,0.2-0.5c0.2-0.1,0.4,0,0.5,0.2c0,0,0,0.1,0.1,0.1l0,0
				c0.2,0.5,0.8,2.2,1.5,2.5l0.3,0.1c0.7,0.3,2.3-0.4,2.8-0.6c0,0,0.1-0.1,0.2-0.1l0,0c0.2-0.1,0.5,0,0.5,0.2c0.1,0.2,0,0.4-0.2,0.5
				c0,0-0.1,0-0.1,0.1l0,0c-0.5,0.2-2.2,0.8-2.5,1.6l-0.1,0.2c-0.3,0.7,0.4,2.4,0.6,2.9l0.1,0.2c0.1,0.2,0,0.4-0.2,0.5
				c-0.2,0.1-0.4,0-0.5-0.2l0,0C20.8,84.7,20.8,84.6,20.8,84.6L20.8,84.6z M20.8,84.6"/>
		</g>
	</g>
	<g id="XMLID_21_">
		<g id="XMLID_22_">
			<path id="XMLID_23_" d="M72.5,89.9c-0.5,0-1.1-0.1-1.6-0.5c-0.9-0.8-1-2.1-0.2-3c0.5-0.5,1.1-0.8,1.8-0.7c0.2,0,0.3,0.2,0.3,0.4
				l0,0c0,0.2-0.2,0.3-0.4,0.2c-0.5,0-0.9,0.1-1.2,0.5c-0.6,0.7-0.5,1.8,0.4,2.3c0.5,0.3,1.2,0.3,1.7-0.1c0.4-0.3,0.6-0.9,0.5-1.4
				c0-0.2,0.1-0.3,0.2-0.4c0.2-0.1,0.4,0,0.5,0.2c0.1,0.7,0,1.3-0.5,1.8C73.6,89.6,73,89.8,72.5,89.9 M72.1,84
				c-0.5,0-1.1-0.2-1.6-0.5c-1-0.8-1-2.4,0.1-3.3c0.7-0.6,1.7-0.6,2.4-0.1c0.7,0.4,1.1,1.2,1,2c0,0.2-0.2,0.3-0.4,0.3
				c-0.2,0-0.3-0.2-0.2-0.4c0-0.6-0.2-1.1-0.7-1.4c-0.5-0.3-1.2-0.3-1.7,0.1c-0.8,0.6-0.8,1.7-0.1,2.3c0.3,0.3,0.8,0.4,1.3,0.3
				c0.2,0,0.3,0.1,0.4,0.2l0,0c0,0.1,0,0.2,0,0.3c0,0.1-0.1,0.1-0.2,0.2C72.3,84,72.2,84,72.1,84 M78.3,89.5c-0.5,0-1.1-0.1-1.6-0.5
				c-0.5-0.5-0.8-1.1-0.7-1.8c0-0.2,0.2-0.3,0.4-0.3c0.2,0,0.3,0.2,0.2,0.4c0,0.6,0.2,1.1,0.7,1.4c0.5,0.3,1.2,0.3,1.7-0.1
				c0.8-0.6,0.8-1.7,0.1-2.3c-0.3-0.3-0.8-0.4-1.3-0.3c-0.2,0-0.3-0.1-0.4-0.2l0,0c0-0.1,0-0.2,0-0.3c0-0.1,0.1-0.1,0.2-0.2
				c0.7-0.1,1.3,0,1.9,0.5c0.9,0.8,1,2.1,0.2,3C79.4,89.2,78.9,89.5,78.3,89.5 M78,83.6c-0.1,0-0.2,0-0.3,0c-0.2,0-0.3-0.2-0.3-0.4
				l0,0c0-0.2,0.2-0.3,0.4-0.2c0.5,0,0.9-0.1,1.2-0.5c0.6-0.7,0.5-1.8-0.4-2.3c-0.5-0.3-1.2-0.3-1.7,0.1c-0.4,0.3-0.6,0.9-0.5,1.4
				c0,0.2-0.1,0.3-0.2,0.4c-0.2,0.1-0.4,0-0.5-0.2c-0.2-0.8,0.1-1.6,0.8-2.1c0.7-0.5,1.7-0.6,2.4-0.2c0.5,0.3,0.9,0.9,1,1.5
				c0.1,0.6-0.1,1.3-0.5,1.8C79.1,83.3,78.6,83.6,78,83.6L78,83.6z M77.8,87.5c-0.4-0.4-1.7-1.5-2.4-1.6l-0.4,0
				c-0.8,0.1-1.9,1.4-2.2,1.9l-0.1,0.1c-0.2,0.1-0.4,0.2-0.5,0c-0.2-0.1-0.2-0.4,0-0.6l0,0c0,0,0.1-0.1,0.1-0.1
				c0.4-0.4,1.4-1.5,1.5-2.3c0-0.1,0-0.4,0-0.5c-0.2-0.7-1.4-1.8-1.8-2.2c-0.1,0-0.1-0.1-0.1-0.1l0,0c-0.2-0.2-0.2-0.4-0.1-0.6
				c0.1-0.1,0.4-0.2,0.5,0c0,0,0.1,0.1,0.1,0.1l0,0c0.4,0.4,1.7,1.6,2.5,1.6l0.3,0c0.7-0.1,1.9-1.4,2.2-1.8c0,0,0.1-0.1,0.1-0.1l0,0
				c0.2-0.2,0.4-0.2,0.6,0c0.1,0.1,0.2,0.4,0,0.6c0,0-0.1,0.1-0.1,0.1l0,0c-0.4,0.4-1.6,1.8-1.6,2.5l0,0.2c0,0.7,1.4,2,1.9,2.3
				l0.1,0.1c0.1,0.2,0.2,0.4,0,0.6c-0.1,0.2-0.4,0.2-0.6,0l0,0C77.9,87.6,77.8,87.5,77.8,87.5L77.8,87.5z M77.8,87.5"/>
		</g>
	</g>
</g>
</svg>
