<?xml version="1.0" standalone="no"?><!DOCTYPE svg PUBLIC "-//W3C//DTD SVG 1.1//EN" "http://www.w3.org/Graphics/SVG/1.1/DTD/svg11.dtd"><svg class="icon" width="200px" height="200.00px" viewBox="0 0 1024 1024" version="1.1" xmlns="http://www.w3.org/2000/svg"><path fill="#333333" d="M62.782 899.805c0 26.033 25.527 47.136 57.019 47.136h328.622l63.342-94.265H119.778c-31.485 0.011-56.996 21.114-56.996 47.13z m844.522-38.173l-316.78-17.593-68.3 91.874 380.043 19.901c0.579 0.016 1.253 0.028 1.932 0.028 31.492 0 57.02-21.103 57.02-47.13 0-25.14-23.804-45.675-53.796-47.063l-0.119-0.017z m-676.073-74.251h224.62l47.479-125.75H408.3l114.031-226.755-76.026-18.901 121.853-246.284-45.827 189.597 114.026 18.895-95.023 188.93h95.023L579.34 775.014l247.07-37.791-38.004-340.202h76.02l-190.05-132.31V151.34h-38.017v56.698l-133.028-94.5-380.06 340.179 107.961-3.258v336.923z" /></svg>